/* XPM */
static char * TFDTreeview_xpm[] = {
"23 21 4 1",
" 	c None",
".	c #808080",
"+	c #FFFFFF",
"@	c #000000",
"      ............     ",
"      .++++++++++.+    ",
"      .+..........+    ",
"      .+..@..@..@.+    ",
"      ............+    ",
"       ++++++++++++    ",
"         @@@@@         ",
"      @@@    @         ",
"............  @        ",
".++++++++++.+ @        ",
".+..........+ @        ",
".+.@..@..@..+  @       ",
"............+  @       ",
" ++++++++++++   @      ",
"                @      ",
"          ............ ",
"          .++++++++++.+",
"          .+..........+",
"          .+..@..@..@.+",
"          ............+",
"           ++++++++++++"};
